<?xml version="1.0" standalone="no"?>
<!DOCTYPE svg PUBLIC "-//W3C//DTD SVG 20010904//EN"
 "http://www.w3.org/TR/2001/REC-SVG-20010904/DTD/svg10.dtd">
<svg version="1.0" xmlns="http://www.w3.org/2000/svg"
 width="700.000000pt" height="700.000000pt" viewBox="0 0 700.000000 700.000000"
 preserveAspectRatio="xMidYMid meet">
<metadata>
Created by potrace 1.14, written by Peter Selinger 2001-2017
</metadata>
<g transform="translate(0.000000,700.000000) scale(0.100000,-0.100000)"
fill="#000000" stroke="none">
<path d="M5257 6584 c-1 -1 -31 -4 -67 -7 -212 -16 -419 -117 -591 -287 -142
-141 -238 -312 -276 -493 -23 -113 -23 -308 1 -405 11 -42 15 -77 10 -82 -5
-4 -133 -79 -284 -165 -340 -196 -287 -165 -595 -342 -144 -83 -281 -161 -305
-175 -118 -67 -627 -359 -640 -368 -8 -5 -35 -21 -59 -35 l-43 -25 -52 46
c-298 269 -735 328 -1097 149 -94 -46 -170 -104 -264 -199 -153 -154 -247
-337 -275 -536 -11 -73 -14 -244 -6 -287 3 -11 8 -43 12 -70 3 -26 20 -86 36
-133 52 -147 118 -251 238 -371 193 -194 401 -286 665 -294 183 -6 308 24 475
111 94 49 126 73 211 152 l57 53 389 -227 c213 -125 408 -238 433 -252 24 -14
84 -49 133 -78 49 -30 91 -54 93 -54 2 0 33 -18 69 -40 36 -22 70 -40 75 -40
6 0 10 -4 10 -10 0 -5 4 -10 10 -10 5 0 71 -37 147 -81 76 -45 157 -92 181
-106 23 -13 93 -54 155 -90 62 -36 126 -73 142 -83 103 -60 105 -61 96 -79 -5
-9 -12 -35 -15 -56 -4 -22 -10 -63 -15 -92 -11 -74 -5 -236 13 -318 78 -361
366 -664 716 -755 226 -59 471 -39 673 54 256 118 468 360 546 622 30 102 32
117 36 259 9 280 -71 497 -257 700 -167 182 -375 292 -608 321 -50 6 -259 6
-295 -1 -212 -38 -342 -94 -477 -206 l-46 -39 -119 67 c-65 36 -136 76 -158
88 -147 83 -217 121 -265 148 -30 17 -145 81 -255 142 -110 62 -227 127 -260
145 -33 18 -73 40 -90 50 -16 10 -50 29 -75 42 -25 14 -180 101 -345 193 -165
93 -317 177 -337 188 -43 23 -42 20 -28 67 30 98 30 357 0 460 -11 40 -6 46
77 90 27 14 82 43 123 66 110 60 173 95 505 275 322 175 345 187 475 257 47
25 90 48 95 52 6 4 57 32 115 63 58 31 204 110 325 176 l220 120 32 -34 c76
-80 184 -144 305 -179 128 -37 192 -46 338 -47 281 -1 497 83 697 274 208 199
312 439 311 722 0 211 -51 379 -166 555 -34 52 -160 185 -227 240 -119 99
-313 179 -472 196 -63 6 -172 12 -176 8z"/>
</g>
</svg>
